<svg height="512pt" viewBox="0 -51 512.001 512" width="512pt" xmlns="http://www.w3.org/2000/svg"><path d="m158.597656 146.007812c0 4.480469-3.632812 8.113282-8.113281 8.113282s-8.113281-3.632813-8.113281-8.113282c0-4.480468 3.632812-8.109374 8.113281-8.109374s8.113281 3.628906 8.113281 8.109374zm0 0"/><path d="m68.808594 159.421875c0 4.480469-3.632813 8.113281-8.113282 8.113281-4.480468 0-8.109374-3.632812-8.109374-8.113281s3.628906-8.113281 8.109374-8.113281c4.480469 0 8.113282 3.632812 8.113282 8.113281zm0 0"/><path d="m180.121094 167.535156c0 4.480469-3.632813 8.113282-8.113282 8.113282-4.480468 0-8.113281-3.632813-8.113281-8.113282 0-4.480468 3.632813-8.113281 8.113281-8.113281 4.480469 0 8.113282 3.632813 8.113282 8.113281zm0 0"/><path d="m108.855469 167.535156c0 4.480469-3.632813 8.113282-8.113281 8.113282-4.480469 0-8.113282-3.632813-8.113282-8.113282 0-4.480468 3.632813-8.113281 8.113282-8.113281 4.480468 0 8.113281 3.632813 8.113281 8.113281zm0 0"/><path d="m497.984375 354.425781h-166.574219c-27.050781-8.441406-46.847656-32.234375-50.371094-60.203125h9.457032l37.046875 24.949219c4.023437 2.710937 8.632812 4.0625 13.242187 4.0625s9.21875-1.355469 13.238282-4.0625l3.445312-2.320313c3.5.953126 7.128906 1.453126 10.804688 1.453126 8.617187 0 16.875-2.628907 23.890624-7.605469.894532-.636719 2.046876-.632813 2.941407 0 7.011719 4.976562 15.273437 7.605469 23.890625 7.605469 8.617187 0 16.878906-2.628907 23.890625-7.605469.894531-.632813 2.046875-.636719 2.945312 0 7.011719 4.976562 15.273438 7.605469 23.890625 7.605469 5.734375 0 11.371094-1.210938 16.546875-3.472657-2.328125 5.183594-5.265625 10.109375-8.78125 14.65625-2.535156 3.28125-1.933593 7.996094 1.347657 10.53125 1.367187 1.058594 2.984374 1.570313 4.585937 1.570313 2.246094 0 4.46875-1.003906 5.945313-2.917969 9.878906-12.773437 15.996093-27.976563 17.738281-43.996094 3.007812-6.324219 4.351562-13.363281 3.855469-20.621093-.617188-8.941407-4.148438-17.144532-9.640626-23.65625.484376-2.273438.75-4.589844.75-6.933594 0-6.65625-1.988281-12.855469-5.394531-18.042969 2.914063-.195313 5.679688-1.488281 7.679688-3.640625 2.164062-2.324219 3.273437-5.464844 3.042969-8.625-1.589844-22.035156-11.378907-42.503906-27.566407-57.636719-16.273437-15.210937-37.507812-23.585937-59.792969-23.585937h-25.988281v-102.335938c0-4.144531-3.363281-7.507812-7.507812-7.507812-4.148438 0-7.507813 3.363281-7.507813 7.507812v102.335938h-25.992187c-22.285157 0-43.519531 8.378906-59.789063 23.589844-16.1875 15.128906-25.976562 35.597656-27.570312 57.636718-.226563 3.15625.882812 6.300782 3.046875 8.625.917969.984375 2 1.78125 3.179687 2.386719-3.929687 5.429687-6.257812 12.09375-6.257812 19.296875 0 8.566406 3.285156 16.375 8.65625 22.246094-1.21875 1.359375-2.164063 2.988281-2.726563 4.832031-1.011719 3.320313-.632812 6.765625.886719 9.671875-1.402344.625-2.679688 1.523438-3.742188 2.664062-2.160156 2.324219-3.269531 5.46875-3.042968 8.625 1.820312 25.171876 14.550781 47.9375 33.847656 62.917969h-86.378906c19.296875-14.980469 32.03125-37.746093 33.847656-62.917969.226562-3.15625-.882812-6.300781-3.042969-8.625-2.175781-2.335937-5.253906-3.675781-8.445312-3.675781h-4.417969c3.375-5.175781 5.347656-11.347656 5.347656-17.976562 0-6.746094-2.0625-13.238281-5.804687-18.683594.621093-.585937 1.230469-1.1875 1.816406-1.8125 7.898437-8.46875 11.8125-19.515625 11.015625-31.117187-.246094-3.515626-.96875-6.992188-2.105469-10.339844.949219-.558594 1.828125-1.246094 2.589844-2.066406 2.164063-2.324219 3.273437-5.46875 3.046875-8.628907-1.59375-22.035156-11.382812-42.503906-27.570312-57.636719-16.269532-15.207031-37.503907-23.585937-59.789063-23.585937h-25.992187v-99.851563c0-4.144531-3.359376-7.507812-7.507813-7.507812-4.144531 0-7.507813 3.363281-7.507813 7.507812v99.851563h-25.988281c-10.417969 0-20.609375 1.8125-30.296875 5.382813-3.894531 1.4375-5.882812 5.753906-4.449218 9.644531 1.4375 3.890625 5.753906 5.882812 9.644531 4.445312 8.019531-2.957031 16.464843-4.457031 25.101562-4.457031h67c36.585938 0 67.5 27.59375 72.003907 63.496094h-211.011719c2.109375-16.875 10.050781-32.414063 22.621093-44.097656 3.039063-2.820313 3.210938-7.574219.386719-10.609376-2.820312-3.035156-7.574219-3.210937-10.609375-.386718-16.296875 15.148437-26.152344 35.675781-27.75 57.800781-.226562 3.160156.878906 6.304687 3.042969 8.628906.761719.820313 1.636719 1.507813 2.585937 2.066407-1.136718 3.335937-1.851562 6.8125-2.09375 10.34375-.800781 11.601562 3.113282 22.648437 11.015626 31.117187.582031.625 1.191406 1.222656 1.808593 1.808594-3.746093 5.433593-5.800781 11.917969-5.800781 18.6875 0 6.628906 1.972656 12.800781 5.351562 17.972656h-4.421874c-3.191407 0-6.269532 1.34375-8.445313 3.679687-2.164063 2.328126-3.269531 5.472657-3.042969 8.625 1.816406 25.171876 14.550782 47.9375 33.847656 62.917969h-25.117187c-7.730469 0-14.015625 6.285157-14.015625 14.015625v27c0 7.730469 6.285156 14.015625 14.015625 14.015625h483.96875c7.730469 0 14.015625-6.285156 14.015625-14.015625v-27c0-7.730468-6.285156-14.015625-14.015625-14.015625zm-162.050781-47.710937-44.882813-30.226563h35.890625c-.128906 10.707031 3.761719 20.8125 11.109375 28.683594.992188 1.0625 2.035157 2.0625 3.121094 3.003906-1.816406.082031-3.652344-.390625-5.238281-1.460937zm139.246094-70.722656c1.425781-2.398438 2.714843-4.894532 3.851562-7.476563 3.695312 2.46875 6.414062 6.269531 7.496094 10.707031-3.554688-1.59375-7.363282-2.707031-11.347656-3.230468zm-29.328126 7.230468c-.90625.644532-2.070312.652344-2.964843.015625-7.007813-4.976562-15.269531-7.605469-23.890625-7.605469-8.617188 0-16.878906 2.628907-23.886719 7.605469-.894531.636719-2.058594.628907-2.964844-.015625-5.847656-4.144531-12.683593-6.667968-19.785156-7.378906-2.671875-3.152344-5.003906-6.617188-6.929687-10.34375h98.40625c-2.5 4.835938-5.679688 9.234375-9.410157 13.082031-3.019531 1.199219-5.902343 2.746094-8.574219 4.640625zm-15.5 10.007813c-5.023437 1.507812-10.308593 2.316406-15.722656 2.316406-3.257812 0-6.46875-.300781-9.605468-.863281 4.183593-2.636719 8.980468-4.035156 13.972656-4.035156 3.980468 0 7.835937.890624 11.355468 2.582031zm-131.714843-27.730469h50.339843c1.667969 4.328125 3.757813 8.425781 6.203126 12.265625-11.417969 3.84375-20.667969 12.585937-25.203126 23.667969h-31.339843c-9.90625 0-17.964844-8.058594-17.964844-17.964844s8.058594-17.96875 17.964844-17.96875zm155.886719 72.953125c-3.039063-2.15625-6.601563-3.238281-10.164063-3.238281s-7.125 1.082031-10.164063 3.238281c-4.457031 3.164063-9.714843 4.835937-15.199218 4.835937s-10.742188-1.671874-15.199219-4.835937c-6.078125-4.316406-14.246094-4.316406-20.324219 0-4.460937 3.164063-9.714844 4.835937-15.199218 4.835937-7.375 0-14.210938-2.96875-19.246094-8.363281-5.03125-5.386719-7.519532-12.433593-7.011719-19.835937.878906-12.769532 11.09375-23.171875 23.8125-24.320313 12.847656 12.347657 30.242187 19.792969 48.800781 19.792969 18.113282 0 35.105469-7.089844 47.855469-18.902344 3.007813-.855468 6.171875-1.179687 9.417969-.921875h-.003906c12.84375 1.023438 23.195312 11.496094 24.078124 24.351563.511719 7.402344-1.980468 14.449218-7.011718 19.835937-5.035156 5.394531-11.867188 8.363281-19.242188 8.363281-5.484375 0-10.742187-1.671874-15.199218-4.835937zm-101.480469-151.5h67c36.585937 0 67.503906 27.59375 72.007812 63.492187h-211.011719c4.503907-35.898437 35.421876-63.492187 72.003907-63.492187zm-203.230469 91.832031c-4.871094-.308594-9.507812-1.9375-13.503906-4.773437-6.078125-4.3125-14.246094-4.3125-20.328125 0-4.457031 3.164062-9.714844 4.835937-15.199219 4.835937s-10.742188-1.671875-15.199219-4.835937c-6.078125-4.3125-14.246093-4.3125-20.324219 0-1.546874 1.097656-3.195312 2.003906-4.910156 2.734375-6.226562-8.949219-9.890625-19.808594-9.890625-31.515625 0-1.449219.070313-2.898438.179688-4.34375h54.5l45.515625 30.660156c.933594.625 1.898437 1.171875 2.886718 1.65625-1.136718 1.949219-2.382812 3.808594-3.726562 5.582031zm-13.058594 12.363282c-8.921875 6.011718-19.617187 9.402343-30.976562 9.402343-13.183594 0-25.296875-4.640625-34.8125-12.367187 1.015625-.597656 2.011718-1.234375 2.980468-1.925782.894532-.632812 2.050782-.632812 2.945313 0 7.011719 4.980469 15.273437 7.609376 23.890625 7.609376s16.878906-2.628907 23.890625-7.609376c.894531-.632812 2.050781-.632812 2.945313 0 2.855468 2.03125 5.921874 3.660157 9.136718 4.890626zm-105.941406-20.664063c-5.03125-5.390625-7.519531-12.433594-7.011719-19.835937.234375-3.394532 1.152344-6.707032 2.671875-9.761719h9.113282c-.085938 1.445312-.148438 2.894531-.148438 4.34375 0 11.851562 2.957031 23.019531 8.15625 32.824219-4.855469-1.214844-9.257812-3.796876-12.78125-7.570313zm137.933594-11.394531c-2.945313 1.984375-6.753906 1.984375-9.703125 0l-27.027344-18.203125h63.757813zm-118.6875 34.777344c1.585937 0 3.164062-.09375 4.722656-.269532 12.824219 13.515625 30.9375 21.96875 50.996094 21.96875 27.683594 0 52.265625-15.828125 63.785156-40.664062 2.644531-.660156 5.210938-1.769532 7.574219-3.359375l45.519531-30.65625h3.15625c1.515625 3.054687 2.441406 6.386719 2.675781 9.761719.507813 7.402343-1.980469 14.445312-7.011719 19.835937-5.035156 5.394531-11.871093 8.363281-19.246093 8.363281-2.742188 0-5.441407-.417968-8.019531-1.242187-3.945313-1.261719-8.175782.914062-9.4375 4.863281-1.265626 3.949219.914062 8.175781 4.863281 9.441406 4.058593 1.296875 8.296875 1.957032 12.59375 1.957032 5.453125 0 10.808593-1.105469 15.773437-3.15625 2.195313 3.035156 3.421875 6.699218 3.421875 10.519531 0 9.90625-8.0625 17.964843-17.964843 17.964843h-154.632813c-9.90625 0-17.964844-8.058593-17.964844-17.964843 0-3.832031 1.226563-7.484375 3.425781-10.519531 4.960938 2.050781 10.316407 3.15625 15.769532 3.15625zm-29.417969 40.355468h211.007813c-3.523438 27.96875-23.320313 51.761719-50.371094 60.203125h-110.265625c-27.050781-8.441406-46.847657-32.234375-50.371094-60.203125zm476.34375 100.21875h-481.96875v-25h54.789063c.019531 0 .039062.003906.058593.003906s.035157-.003906.054688-.003906h112.386719.0625 147.863281c.007812 0 .015625.003906.027343.003906.007813 0 .015626-.003906.023438-.003906h166.699219v25zm0 0"/><path d="m418.996094 170.585938c0 4.480468-3.632813 8.113281-8.113282 8.113281-4.480468 0-8.113281-3.632813-8.113281-8.113281 0-4.480469 3.632813-8.113282 8.113281-8.113282 4.480469 0 8.113282 3.632813 8.113282 8.113282zm0 0"/><path d="m385.480469 170.585938c0 4.480468-3.628907 8.113281-8.113281 8.113281-4.480469 0-8.109376-3.632813-8.109376-8.113281 0-4.480469 3.628907-8.113282 8.109376-8.113282 4.484374 0 8.113281 3.632813 8.113281 8.113282zm0 0"/><path d="m402.769531 192.109375c0 4.480469-3.632812 8.113281-8.113281 8.113281s-8.113281-3.632812-8.113281-8.113281 3.632812-8.113281 8.113281-8.113281 8.113281 3.632812 8.113281 8.113281zm0 0"/><path d="m466.3125 192.109375c0 4.480469-3.632812 8.113281-8.113281 8.113281s-8.113281-3.632812-8.113281-8.113281 3.632812-8.113281 8.113281-8.113281 8.113281 3.632812 8.113281 8.113281zm0 0"/></svg>